<svg xmlns="http://www.w3.org/2000/svg" viewBox="0 0 64 64" width="512" height="512"><rect width="64" height="64" fill="#141110"/><circle cx="45" cy="29" r="15" fill="#e0564e"/><circle cx="19" cy="29" r="15" fill="#faf7f2"/><circle cx="45" cy="29" r="9.5" fill="none" stroke="#141110" stroke-width="2.4"/><circle cx="45" cy="29" r="4.5" fill="none" stroke="#141110" stroke-width="2.4"/><circle cx="19" cy="29" r="9.5" fill="none" stroke="#141110" stroke-width="2.4"/><circle cx="19" cy="29" r="4.5" fill="none" stroke="#141110" stroke-width="2.4"/><g fill="none" stroke="#141110" stroke-width="5.5" stroke-linecap="round"><path d="M31 19C26 14 23 11 19 8"/><path d="M33 19C38 14 41 11 45 8"/></g><circle cx="19" cy="8" r="3" fill="#141110"/><circle cx="45" cy="8" r="3" fill="#141110"/><g fill="none" stroke-width="2" stroke-linecap="round"><path d="M31 19C26 14 23 11 19 8" stroke="#faf7f2"/><path d="M33 19C38 14 41 11 45 8" stroke="#e0564e"/></g><circle cx="19" cy="8" r="1.6" fill="#faf7f2"/><circle cx="45" cy="8" r="1.6" fill="#e0564e"/><path d="M32 18C29.2 23 29.2 45 32 57L32 18Z" fill="#faf7f2"/><path d="M32 18C34.8 23 34.8 45 32 57L32 18Z" fill="#e0564e"/></svg>
